<?xml version="1.0" standalone="no"?><!DOCTYPE svg PUBLIC "-//W3C//DTD SVG 1.1//EN" "http://www.w3.org/Graphics/SVG/1.1/DTD/svg11.dtd"><svg height="1024" node-id="1" sillyvg="true" template-height="1024" template-width="1024" version="1.1" viewBox="0 0 1024 1024" width="1024" xmlns="http://www.w3.org/2000/svg" xmlns:xlink="http://www.w3.org/1999/xlink"><defs node-id="181"><clipPath id="clip-path" node-id="5"><path d="M 744.68 338.68 L 744.68 598.68 L 319.29 598.68 L 319.29 338.68 Z" fill="#000000" fill-rule="nonzero" node-id="184" stroke="none" target-height="259.99997" target-width="425.39" target-x="319.28998" target-y="338.68002"></path></clipPath></defs><path d="M 849.90 323.32 C 825.19 309.10 799.09 297.46 772.00 288.58 C 715.71 270.18 656.00 262.98 597.00 263.67 C 430.36 265.59 375.45 347.50 267.56 345.57 C 159.67 343.64 24.58 414.39 16.07 535.40 C 7.56 656.41 39.19 721.40 135.52 772.45 C 231.85 823.50 402.34 750.28 541.05 774.37 C 679.76 798.46 805.95 835.08 901.31 779.19 C 991.84 726.13 1025.50 608.13 1002.00 509.87 C 982.56 428.53 920.81 364.15 849.90 323.32 Z" fill="#8c71ff" fill-rule="nonzero" node-id="188" stroke="none" target-height="572.1" target-width="1017.94" target-x="7.56" target-y="262.98"></path><g node-id="660"><path d="M 849.90 323.32 C 825.19 309.10 799.09 297.46 772.00 288.58 C 715.71 270.18 656.00 262.98 597.00 263.67 C 430.36 265.59 375.45 347.50 267.56 345.57 C 159.67 343.64 24.58 414.39 16.07 535.40 C 7.56 656.41 39.19 721.40 135.52 772.45 C 231.85 823.50 402.34 750.28 541.05 774.37 C 679.76 798.46 805.95 835.08 901.31 779.19 C 991.84 726.13 1025.50 608.13 1002.00 509.87 C 982.56 428.53 920.81 364.15 849.90 323.32 Z" fill="#ffffff" fill-opacity="0.86" fill-rule="nonzero" group-id="1" node-id="192" stroke="none" target-height="572.1" target-width="1017.94" target-x="7.56" target-y="262.98"></path></g><path d="M 98.00 568.66 C 102.24 570.52 112.62 570.28 112.63 570.28 C 112.64 570.28 110.40 563.49 110.20 563.07 C 107.92 558.31 100.72 550.44 94.86 551.23 C 92.91 551.56 91.18 552.70 90.12 554.37 C 89.06 556.05 88.75 558.09 89.28 560.00 C 90.26 564.07 94.42 567.08 98.00 568.66 Z" fill="#0c0426" fill-rule="nonzero" node-id="195" stroke="none" target-height="20.080017" target-width="23.88871" target-x="88.75129" target-y="550.44"></path><path d="M 101.62 598.73 C 106.02 599.38 115.29 596.73 116.02 596.47 C 117.55 601.76 119.43 606.95 121.64 612.00 C 122.92 615.00 124.29 617.88 125.71 620.81 C 124.86 619.57 124.10 618.47 123.98 618.33 C 120.52 614.33 111.49 608.65 106.05 610.96 C 104.24 611.79 102.88 613.34 102.28 615.24 C 101.69 617.13 101.94 619.19 102.95 620.90 C 104.95 624.56 109.78 626.37 113.68 626.90 C 117.58 627.43 125.58 625.34 127.68 624.75 C 128.24 625.87 128.78 626.99 129.34 628.10 C 132.02 633.44 134.72 638.76 137.21 644.10 C 138.09 645.97 138.88 647.84 139.69 649.71 C 138.93 648.61 138.29 647.71 138.18 647.56 C 134.72 643.56 125.70 637.88 120.25 640.19 C 118.44 641.02 117.08 642.57 116.48 644.47 C 115.89 646.37 116.14 648.42 117.15 650.13 C 119.15 653.79 123.98 655.60 127.88 656.13 C 131.78 656.66 139.01 654.78 141.51 654.13 C 142.27 656.07 143.04 658.01 143.69 659.92 C 144.11 661.24 144.61 662.48 144.95 663.82 C 145.29 665.16 145.68 666.46 146.05 667.76 C 146.65 670.28 147.29 672.89 147.82 675.37 C 148.21 677.09 148.54 678.74 148.88 680.37 C 148.02 678.50 146.28 674.88 146.10 674.59 C 143.29 670.12 135.23 663.13 129.50 664.59 C 127.59 665.13 126.00 666.46 125.12 668.25 C 124.25 670.03 124.17 672.11 124.92 673.95 C 126.36 677.87 130.84 680.39 134.61 681.54 C 138.77 682.81 147.96 681.65 149.11 681.54 C 149.66 684.29 150.17 686.97 150.61 689.54 C 151.61 695.13 152.34 700.15 152.91 704.39 L 156.79 704.39 C 156.11 700.00 155.23 694.77 154.06 688.90 C 153.51 686.10 152.87 683.13 152.18 680.09 C 154.95 678.97 157.65 677.70 160.27 676.28 C 163.27 679.56 171.05 683.40 172.06 683.89 C 171.00 686.48 169.95 689.00 168.92 691.35 C 166.77 696.29 164.74 700.67 162.92 704.35 L 167.11 704.35 C 168.66 700.92 170.36 697.01 172.11 692.68 C 173.19 690.05 174.30 687.21 175.40 684.29 C 176.52 684.52 185.62 686.37 189.86 685.41 C 193.71 684.55 198.37 682.41 200.09 678.56 C 200.97 676.78 201.05 674.71 200.32 672.86 C 199.58 671.02 198.09 669.58 196.23 668.89 C 190.62 667.01 182.07 673.37 178.93 677.62 C 178.74 677.88 177.04 680.82 176.00 682.69 C 176.44 681.50 176.89 680.34 177.33 679.11 C 178.23 676.67 179.05 674.21 179.94 671.56 C 180.33 670.27 180.72 668.97 181.11 667.65 C 181.50 666.33 181.81 664.93 182.17 663.55 C 182.93 660.35 183.55 657.07 184.09 653.75 C 186.23 654.53 193.86 657.18 197.82 656.90 C 201.78 656.62 206.69 655.18 208.97 651.68 C 210.11 650.05 210.50 648.02 210.05 646.08 C 209.60 644.15 208.35 642.50 206.61 641.54 C 201.36 638.82 191.93 643.82 188.19 647.54 C 187.96 647.77 185.57 650.75 184.29 652.41 C 184.61 650.41 184.93 648.41 185.18 646.41 C 185.91 640.55 186.46 634.59 187.04 628.65 C 187.22 626.83 187.42 625.02 187.61 623.20 C 188.37 623.49 197.37 626.84 201.79 626.53 C 205.73 626.25 210.67 624.81 212.94 621.31 C 214.08 619.68 214.48 617.65 214.03 615.71 C 213.58 613.77 212.33 612.12 210.59 611.16 C 205.34 608.45 195.91 613.45 192.17 617.16 C 191.89 617.44 188.46 621.73 187.64 622.86 C 188.06 618.86 188.52 614.86 189.13 610.98 C 189.93 605.71 191.07 600.49 192.54 595.37 C 192.89 595.50 202.27 599.04 206.81 598.72 C 210.74 598.44 215.68 597.00 217.96 593.50 C 219.10 591.87 219.50 589.84 219.05 587.90 C 218.60 585.96 217.35 584.31 215.61 583.35 C 210.35 580.64 200.93 585.64 197.18 589.35 C 196.89 589.65 193.18 594.26 192.60 595.14 C 192.68 594.85 192.74 594.53 192.83 594.24 C 194.45 589.14 196.53 584.19 199.02 579.45 C 200.36 576.82 201.80 574.38 203.24 572.04 C 204.92 572.88 212.64 576.62 216.75 576.79 C 220.75 576.95 225.75 576.05 228.41 572.79 C 229.72 571.30 230.34 569.32 230.10 567.35 C 229.87 565.38 228.81 563.60 227.19 562.45 C 222.26 559.18 212.34 563.11 208.19 566.45 C 207.97 566.63 205.89 568.70 204.39 570.23 C 205.06 569.23 205.73 568.09 206.39 567.10 C 208.86 563.38 211.39 560.10 213.59 557.25 C 214.87 555.63 216.06 554.19 217.19 552.85 C 219.27 552.85 227.64 552.56 231.30 550.85 C 234.96 549.14 238.95 546.05 239.82 541.96 C 240.30 540.03 239.93 537.99 238.81 536.34 C 237.70 534.70 235.93 533.61 233.96 533.34 C 228.08 532.71 221.09 540.77 218.96 545.60 C 218.77 546.01 216.62 552.87 216.72 552.87 L 216.85 552.87 C 215.74 554.14 214.56 555.51 213.30 557.03 C 211.00 559.85 208.43 563.03 205.86 566.75 C 203.08 570.68 200.52 574.77 198.21 579.00 C 195.58 583.74 193.37 588.70 191.62 593.83 C 191.62 593.89 191.62 593.96 191.57 594.02 C 191.57 592.29 191.57 587.44 191.47 587.07 C 190.79 581.83 186.40 572.07 180.59 571.07 C 178.62 570.76 176.62 571.30 175.08 572.56 C 173.54 573.82 172.60 575.67 172.51 577.66 C 172.17 581.82 175.19 585.98 178.13 588.66 C 181.45 591.66 190.66 594.49 191.39 594.72 C 189.74 599.99 188.44 605.35 187.50 610.79 C 186.94 613.95 186.50 617.16 186.04 620.38 C 186.04 618.88 186.04 617.54 185.96 617.38 C 185.28 612.14 180.89 602.38 175.07 601.38 C 173.11 601.07 171.11 601.62 169.57 602.87 C 168.03 604.13 167.10 605.98 167.00 607.96 C 166.66 612.12 169.68 616.29 172.62 618.91 C 175.56 621.53 183.41 624.19 185.48 624.85 C 185.33 626.08 185.16 627.32 185.02 628.55 C 184.31 634.49 183.63 640.42 182.78 646.21 C 182.48 648.21 182.11 650.21 181.78 652.21 C 181.78 650.88 181.73 649.76 181.71 649.59 C 181.03 644.35 176.64 634.59 170.83 633.59 C 168.86 633.28 166.86 633.82 165.32 635.08 C 163.78 636.34 162.84 638.19 162.75 640.18 C 162.41 644.34 165.43 648.51 168.37 651.18 C 171.31 653.85 178.37 656.18 180.86 656.99 C 180.43 658.99 180.00 661.08 179.49 662.99 C 179.11 664.32 178.84 665.63 178.39 666.94 C 177.94 668.25 177.55 669.54 177.13 670.83 C 176.24 673.27 175.34 675.83 174.41 678.15 C 173.78 679.80 173.15 681.36 172.52 682.93 C 172.84 680.93 173.38 676.93 173.39 676.58 C 173.32 671.93 172.07 667.38 169.74 663.36 C 169.76 662.84 169.73 662.32 169.65 661.81 C 169.40 659.84 168.33 658.06 166.70 656.93 C 165.06 655.80 163.02 655.41 161.09 655.87 C 155.37 657.39 151.75 667.43 151.48 672.70 C 151.48 673.01 151.66 676.41 151.83 678.55 C 151.54 677.30 151.27 676.09 150.96 674.82 C 150.36 672.29 149.69 669.82 148.96 667.09 C 148.57 665.79 148.17 664.49 147.77 663.17 C 147.37 661.85 146.85 660.52 146.39 659.17 C 145.26 656.08 143.97 653.00 142.59 649.93 C 144.81 649.40 152.59 647.40 155.78 644.99 C 158.97 642.58 162.23 638.66 162.20 634.48 C 162.25 632.49 161.46 630.58 160.02 629.22 C 158.57 627.85 156.62 627.16 154.64 627.32 C 148.76 627.96 143.64 637.32 142.64 642.50 C 142.57 642.82 142.22 646.62 142.07 648.71 C 141.23 646.87 140.40 645.03 139.49 643.19 C 136.86 637.90 134.04 632.62 131.24 627.35 C 130.38 625.73 129.55 624.11 128.71 622.50 C 129.50 622.31 138.86 620.14 142.38 617.44 C 145.51 615.04 148.83 611.11 148.80 606.94 C 148.85 604.95 148.06 603.04 146.62 601.67 C 145.18 600.30 143.22 599.61 141.24 599.77 C 135.36 600.41 130.24 609.77 129.19 614.95 C 129.11 615.34 128.61 620.80 128.55 622.20 C 126.70 618.63 124.89 615.06 123.25 611.47 C 121.00 606.63 119.07 601.65 117.47 596.56 C 117.84 596.48 127.62 594.26 131.22 591.49 C 134.35 589.09 137.67 585.16 137.64 580.98 C 137.69 578.99 136.90 577.08 135.46 575.72 C 134.01 574.35 132.06 573.66 130.08 573.82 C 124.20 574.46 119.08 583.82 118.03 589.00 C 117.95 589.40 117.42 595.28 117.40 596.36 C 117.31 596.06 117.18 595.76 117.10 595.47 C 115.64 590.32 114.63 585.06 114.10 579.73 C 113.77 576.79 113.62 573.96 113.54 571.21 C 115.40 570.98 123.91 569.85 127.43 567.72 C 130.80 565.72 134.53 562.14 134.96 557.98 C 135.25 556.00 134.67 554.00 133.39 552.47 C 132.10 550.94 130.23 550.04 128.23 549.98 C 122.32 549.98 116.23 558.72 114.59 563.74 C 114.50 564.02 113.91 566.89 113.51 568.99 C 113.51 567.75 113.44 566.47 113.45 565.28 C 113.45 560.81 113.74 556.71 114.02 553.08 C 114.19 551.02 114.39 549.16 114.60 547.43 C 116.31 546.25 123.15 541.43 125.26 537.97 C 127.37 534.51 128.99 529.74 127.46 525.86 C 126.80 523.98 125.37 522.47 123.53 521.70 C 121.69 520.94 119.62 521.00 117.82 521.86 C 112.57 524.57 111.18 535.15 112.05 540.36 C 112.13 540.81 114.11 547.72 114.20 547.66 L 114.31 547.59 C 114.07 549.25 113.85 551.05 113.64 553.01 C 113.28 556.63 112.90 560.73 112.80 565.22 C 112.63 570.06 112.74 574.90 113.14 579.73 C 113.56 585.13 114.46 590.49 115.83 595.73 L 115.89 595.92 C 114.96 594.46 112.22 590.46 111.98 590.17 C 108.52 586.17 99.50 580.49 94.05 582.80 C 92.23 583.63 90.85 585.19 90.25 587.10 C 89.66 589.01 89.91 591.09 90.95 592.80 C 92.90 596.36 97.72 598.17 101.62 598.73 Z" fill="#0c0426" fill-rule="nonzero" node-id="197" stroke="none" target-height="183.44983" target-width="150.63776" target-x="89.660324" target-y="520.9402"></path><path d="M 203.05 571.00 C 203.14 571.00 204.93 564.10 205.00 563.64 C 205.73 558.41 204.06 547.88 198.73 545.30 C 196.92 544.49 194.85 544.48 193.03 545.29 C 191.21 546.09 189.82 547.63 189.21 549.52 C 187.78 553.45 189.59 558.26 191.73 561.52 C 194.25 565.41 203.00 570.94 203.05 571.00 Z" fill="#0c0426" fill-rule="nonzero" node-id="199" stroke="none" target-height="26.51709" target-width="17.949997" target-x="187.78" target-y="544.4829"></path><path d="M 189.60 760.49 L 132.85 760.49 L 125.76 697.47 L 196.69 697.47 L 189.60 760.49 Z" fill="#ffffff" fill-rule="nonzero" node-id="201" stroke="#0c0426" stroke-linecap="round" stroke-width="1" target-height="63.02002" target-width="70.93" target-x="125.76" target-y="697.47"></path><path d="M 127.06 709.01 L 127.75 715.12 L 194.71 715.12 L 195.39 709.01 L 127.06 709.01 Z" fill="#0c0426" fill-rule="nonzero" node-id="203" stroke="none" target-height="6.1099854" target-width="68.33" target-x="127.06" target-y="709.01"></path><path d="M 193.19 728.55 L 193.88 722.44 L 128.57 722.44 L 129.26 728.55 L 193.19 728.55 Z" fill="#0c0426" fill-rule="nonzero" node-id="205" stroke="none" target-height="6.1099243" target-width="65.31" target-x="128.57" target-y="722.44"></path><g node-id="661"><path d="M 811.71 415.47 L 750.38 415.47 L 750.38 390.65 L 811.71 390.65 Z" fill="#8c71ff" fill-opacity="0.2" fill-rule="nonzero" group-id="2" node-id="209" stroke="none" target-height="24.820007" target-width="61.329956" target-x="750.3799" target-y="390.65"></path></g><g node-id="662"><path d="M 599.77 347.26 L 538.44 347.26 L 538.44 322.44 L 599.77 322.44 Z" fill="#8c71ff" fill-opacity="0.2" fill-rule="nonzero" group-id="3" node-id="214" stroke="none" target-height="24.820038" target-width="61.330017" target-x="538.43994" target-y="322.43997"></path></g><g node-id="663"><path d="M 409.74 347.26 L 348.41 347.26 L 348.41 322.44 L 409.74 322.44 Z" fill="#8c71ff" fill-opacity="0.2" fill-rule="nonzero" group-id="4" node-id="219" stroke="none" target-height="24.820038" target-width="61.329956" target-x="348.41003" target-y="322.43997"></path></g><g node-id="664"><path d="M 300.10 393.55 L 238.77 393.55 L 238.77 368.73 L 300.10 368.73 Z" fill="#8c71ff" fill-opacity="0.2" fill-rule="nonzero" group-id="5" node-id="224" stroke="none" target-height="24.819977" target-width="61.329987" target-x="238.77002" target-y="368.73"></path></g><g node-id="665"><path d="M 633.35 381.58 L 572.02 381.58 L 572.02 356.76 L 633.35 356.76 Z" fill="#8c71ff" fill-opacity="0.1" fill-rule="nonzero" group-id="6" node-id="229" stroke="none" target-height="24.820007" target-width="61.330017" target-x="572.01996" target-y="356.76007"></path></g><g node-id="666"><path d="M 739.76 347.26 L 678.43 347.26 L 678.43 322.44 L 739.76 322.44 Z" fill="#8c71ff" fill-opacity="0.2" fill-rule="nonzero" group-id="7" node-id="234" stroke="none" target-height="24.820038" target-width="61.33008" target-x="678.42975" target-y="322.43997"></path></g><g node-id="667"><path d="M 773.34 381.58 L 712.01 381.58 L 712.01 356.76 L 773.34 356.76 Z" fill="#8c71ff" fill-opacity="0.1" fill-rule="nonzero" group-id="8" node-id="239" stroke="none" target-height="24.820007" target-width="61.330017" target-x="712.00995" target-y="356.76007"></path></g><g node-id="668"><path d="M 703.26 381.58 L 641.93 381.58 L 641.93 356.76 L 703.26 356.76 Z" fill="#8c71ff" fill-opacity="0.1" fill-rule="nonzero" group-id="9" node-id="244" stroke="none" target-height="24.820007" target-width="61.330017" target-x="641.92993" target-y="356.76007"></path></g><g node-id="669"><path d="M 883.09 438.39 L 821.76 438.39 L 821.76 413.57 L 883.09 413.57 Z" fill="#8c71ff" fill-opacity="0.2" fill-rule="nonzero" group-id="10" node-id="249" stroke="none" target-height="24.820007" target-width="61.330017" target-x="821.7601" target-y="413.56998"></path></g><g node-id="670"><path d="M 913.34 381.58 L 852.01 381.58 L 852.01 356.76 L 913.34 356.76 Z" fill="#8c71ff" fill-opacity="0.1" fill-rule="nonzero" group-id="11" node-id="254" stroke="none" target-height="24.820007" target-width="61.330017" target-x="852.00995" target-y="356.76007"></path></g><g node-id="671"><path d="M 843.25 381.58 L 781.92 381.58 L 781.92 356.76 L 843.25 356.76 Z" fill="#8c71ff" fill-opacity="0.1" fill-rule="nonzero" group-id="12" node-id="259" stroke="none" target-height="24.820007" target-width="61.330017" target-x="781.92004" target-y="356.76007"></path></g><g node-id="672"><path d="M 764.86 232.63 L 703.53 232.63 L 703.53 207.81 L 764.86 207.81 Z" fill="#8c71ff" fill-opacity="0.2" fill-rule="nonzero" group-id="13" node-id="264" stroke="none" target-height="24.819992" target-width="61.33008" target-x="703.5299" target-y="207.81"></path></g><g node-id="673"><path d="M 798.45 278.93 L 737.12 278.93 L 737.12 254.11 L 798.45 254.11 Z" fill="#8c71ff" fill-opacity="0.1" fill-rule="nonzero" group-id="14" node-id="269" stroke="none" target-height="24.820007" target-width="61.330017" target-x="737.11993" target-y="254.10999"></path></g><g node-id="674"><path d="M 435.55 220.22 L 374.22 220.22 L 374.22 195.40 L 435.55 195.40 Z" fill="#8c71ff" fill-opacity="0.2" fill-rule="nonzero" group-id="15" node-id="274" stroke="none" target-height="24.820007" target-width="61.329987" target-x="374.22003" target-y="195.40002"></path></g><g node-id="675"><path d="M 469.13 269.01 L 407.80 269.01 L 407.80 244.19 L 469.13 244.19 Z" fill="#8c71ff" fill-opacity="0.1" fill-rule="nonzero" group-id="16" node-id="279" stroke="none" target-height="24.820007" target-width="61.330048" target-x="407.8" target-y="244.19"></path></g><g node-id="676"><path d="M 887.80 232.63 L 826.47 232.63 L 826.47 207.81 L 887.80 207.81 Z" fill="#8c71ff" fill-opacity="0.2" fill-rule="nonzero" group-id="17" node-id="284" stroke="none" target-height="24.819992" target-width="61.329956" target-x="826.4701" target-y="207.81"></path></g><g node-id="677"><path d="M 703.26 305.28 L 641.93 305.28 L 641.93 280.46 L 703.26 280.46 Z" fill="#8c71ff" fill-opacity="0.1" fill-rule="nonzero" group-id="18" node-id="289" stroke="none" target-height="24.820007" target-width="61.330017" target-x="641.92993" target-y="280.45996"></path></g><g node-id="678"><path d="M 528.61 473.95 L 467.28 473.95 L 467.28 449.13 L 528.61 449.13 Z" fill="#8c71ff" fill-opacity="0.2" fill-rule="nonzero" group-id="19" node-id="294" stroke="none" target-height="24.820007" target-width="61.330017" target-x="467.2801" target-y="449.13007"></path></g><g node-id="679"><path d="M 528.61 540.94 L 467.28 540.94 L 467.28 516.12 L 528.61 516.12 Z" fill="#8c71ff" fill-opacity="0.2" fill-rule="nonzero" group-id="20" node-id="299" stroke="none" target-height="24.820007" target-width="61.330017" target-x="467.2801" target-y="516.11993"></path></g><g node-id="680"><path d="M 811.71 542.17 L 750.38 542.17 L 750.38 517.35 L 811.71 517.35 Z" fill="#8c71ff" fill-opacity="0.2" fill-rule="nonzero" group-id="21" node-id="304" stroke="none" target-height="24.820007" target-width="61.329956" target-x="750.3799" target-y="517.35"></path></g><g node-id="681"><path d="M 423.28 508.27 L 361.95 508.27 L 361.95 483.45 L 423.28 483.45 Z" fill="#8c71ff" fill-opacity="0.1" fill-rule="nonzero" group-id="22" node-id="309" stroke="none" target-height="24.820038" target-width="61.330017" target-x="361.94995" target-y="483.45"></path></g><g node-id="682"><path d="M 456.74 540.72 L 395.41 540.72 L 395.41 515.90 L 456.74 515.90 Z" fill="#8c71ff" fill-opacity="0.1" fill-rule="nonzero" group-id="23" node-id="314" stroke="none" target-height="24.820007" target-width="61.329956" target-x="395.41003" target-y="515.89996"></path></g><g node-id="683"><path d="M 245.96 508.27 L 184.63 508.27 L 184.63 483.45 L 245.96 483.45 Z" fill="#8c71ff" fill-opacity="0.1" fill-rule="nonzero" group-id="24" node-id="319" stroke="none" target-height="24.820038" target-width="61.33" target-x="184.62997" target-y="483.45"></path></g><g node-id="684"><path d="M 279.44 540.72 L 218.11 540.72 L 218.11 515.90 L 279.44 515.90 Z" fill="#8c71ff" fill-opacity="0.1" fill-rule="nonzero" group-id="25" node-id="324" stroke="none" target-height="24.820007" target-width="61.329987" target-x="218.11002" target-y="515.89996"></path></g><g node-id="685"><path d="M 599.77 473.95 L 538.44 473.95 L 538.44 449.13 L 599.77 449.13 Z" fill="#8c71ff" fill-opacity="0.2" fill-rule="nonzero" group-id="26" node-id="329" stroke="none" target-height="24.820007" target-width="61.330017" target-x="538.43994" target-y="449.13007"></path></g><g node-id="686"><path d="M 563.26 508.27 L 501.93 508.27 L 501.93 483.45 L 563.26 483.45 Z" fill="#8c71ff" fill-opacity="0.1" fill-rule="nonzero" group-id="27" node-id="334" stroke="none" target-height="24.820038" target-width="61.329956" target-x="501.92993" target-y="483.45"></path></g><g node-id="687"><path d="M 592.50 578.92 L 531.17 578.92 L 531.17 554.10 L 592.50 554.10 Z" fill="#8c71ff" fill-opacity="0.1" fill-rule="nonzero" group-id="28" node-id="339" stroke="none" target-height="24.820007" target-width="61.330017" target-x="531.17004" target-y="554.1"></path></g><g node-id="688"><path d="M 504.79 611.81 L 443.46 611.81 L 443.46 586.99 L 504.79 586.99 Z" fill="#8c71ff" fill-opacity="0.1" fill-rule="nonzero" group-id="29" node-id="344" stroke="none" target-height="24.820007" target-width="61.329956" target-x="443.4601" target-y="586.99005"></path></g><g node-id="689"><path d="M 736.25 611.81 L 674.92 611.81 L 674.92 586.99 L 736.25 586.99 Z" fill="#8c71ff" fill-opacity="0.1" fill-rule="nonzero" group-id="30" node-id="349" stroke="none" target-height="24.820007" target-width="61.33008" target-x="674.92" target-y="586.99005"></path></g><g node-id="690"><path d="M 911.11 611.81 L 849.78 611.81 L 849.78 586.99 L 911.11 586.99 Z" fill="#8c71ff" fill-opacity="0.1" fill-rule="nonzero" group-id="31" node-id="354" stroke="none" target-height="24.820007" target-width="61.33008" target-x="849.77997" target-y="586.99005"></path></g><g node-id="691"><path d="M 688.17 424.21 L 626.84 424.21 L 626.84 399.39 L 688.17 399.39 Z" fill="#8c71ff" fill-opacity="0.1" fill-rule="nonzero" group-id="32" node-id="359" stroke="none" target-height="24.820007" target-width="61.330017" target-x="626.83997" target-y="399.38995"></path></g><g node-id="692"><path d="M 618.08 424.21 L 556.75 424.21 L 556.75 399.39 L 618.08 399.39 Z" fill="#8c71ff" fill-opacity="0.1" fill-rule="nonzero" group-id="33" node-id="364" stroke="none" target-height="24.820007" target-width="61.330017" target-x="556.74994" target-y="399.38995"></path></g><g node-id="693"><path d="M 423.18 424.21 L 361.85 424.21 L 361.85 399.39 L 423.18 399.39 Z" fill="#8c71ff" fill-opacity="0.1" fill-rule="nonzero" group-id="34" node-id="369" stroke="none" target-height="24.820007" target-width="61.329987" target-x="361.85004" target-y="399.38995"></path></g><g node-id="694"><path d="M 739.76 473.95 L 678.43 473.95 L 678.43 449.13 L 739.76 449.13 Z" fill="#8c71ff" fill-opacity="0.2" fill-rule="nonzero" group-id="35" node-id="374" stroke="none" target-height="24.820007" target-width="61.33008" target-x="678.42975" target-y="449.13007"></path></g><g node-id="695"><path d="M 672.24 544.80 L 610.91 544.80 L 610.91 519.98 L 672.24 519.98 Z" fill="#8c71ff" fill-opacity="0.1" fill-rule="nonzero" group-id="36" node-id="379" stroke="none" target-height="24.820007" target-width="61.330017" target-x="610.91003" target-y="519.98004"></path></g><g node-id="696"><path d="M 879.75 473.95 L 818.42 473.95 L 818.42 449.13 L 879.75 449.13 Z" fill="#8c71ff" fill-opacity="0.2" fill-rule="nonzero" group-id="37" node-id="384" stroke="none" target-height="24.820007" target-width="61.33008" target-x="818.4199" target-y="449.13007"></path></g><g node-id="697"><path d="M 883.09 565.09 L 821.76 565.09 L 821.76 540.27 L 883.09 540.27 Z" fill="#8c71ff" fill-opacity="0.2" fill-rule="nonzero" group-id="38" node-id="389" stroke="none" target-height="24.820007" target-width="61.330017" target-x="821.7601" target-y="540.26996"></path></g><g node-id="698"><path d="M 913.34 508.27 L 852.01 508.27 L 852.01 483.45 L 913.34 483.45 Z" fill="#8c71ff" fill-opacity="0.1" fill-rule="nonzero" group-id="39" node-id="394" stroke="none" target-height="24.820038" target-width="61.330017" target-x="852.00995" target-y="483.45"></path></g><g node-id="699"><path d="M 843.25 508.27 L 781.92 508.27 L 781.92 483.45 L 843.25 483.45 Z" fill="#8c71ff" fill-opacity="0.1" fill-rule="nonzero" group-id="40" node-id="399" stroke="none" target-height="24.820038" target-width="61.330017" target-x="781.92004" target-y="483.45"></path></g><path d="M 309.29 312.69 L 754.68 312.69 C 760.20 312.69 764.68 317.17 764.68 322.69 L 764.68 622.69 C 764.68 628.21 760.20 632.69 754.68 632.69 L 309.29 632.69 C 303.77 632.69 299.29 628.21 299.29 622.69 L 299.29 322.69 C 299.29 317.17 303.77 312.69 309.29 312.69 Z" fill="#8c71ff" fill-rule="nonzero" node-id="402" stroke="#1b2e35" stroke-linecap="butt" stroke-width="1" target-height="320" target-width="465.39005" target-x="299.29" target-y="312.69"></path><g node-id="700"><path d="M 744.68 338.68 L 744.68 598.68 L 319.29 598.68 L 319.29 338.68 Z" fill="#ffffff" fill-rule="nonzero" group-id="41" node-id="406" stroke="#1b2e35" stroke-linecap="butt" stroke-width="1" target-height="259.99997" target-width="425.39" target-x="319.28998" target-y="338.68002"></path></g><path d="M 319.29 338.69 L 744.68 338.69 L 744.68 355.86 L 319.29 355.86 Z" fill="#c9c9c9" fill-rule="nonzero" node-id="409" stroke="#0c0426" stroke-linecap="butt" stroke-width="1" target-height="17.170013" target-width="425.39005" target-x="319.29" target-y="338.69"></path><path d="M 536.98 325.69 C 536.98 328.45 534.74 330.69 531.98 330.69 C 529.22 330.69 526.98 328.45 526.98 325.69 C 526.98 322.93 529.22 320.69 531.98 320.69 C 534.74 320.69 536.98 322.93 536.98 325.69 Z" fill="#133728" fill-rule="nonzero" node-id="411" stroke="none" target-height="10" target-width="10" target-x="526.98" target-y="320.69"></path><path d="M 553.06 325.69 C 553.06 326.79 552.16 327.69 551.06 327.69 C 549.96 327.69 549.06 326.79 549.06 325.69 C 549.06 324.59 549.96 323.69 551.06 323.69 C 552.16 323.69 553.06 324.59 553.06 325.69 Z" fill="#133728" fill-rule="nonzero" node-id="413" stroke="none" target-height="4" target-width="4" target-x="549.06" target-y="323.69"></path><path d="M 868.85 732.07 L 868.85 721.00 C 866.36 720.55 864.19 721.81 862.41 723.66 L 770.00 653.74 C 766.52 651.13 762.29 649.73 757.94 649.74 L 308.94 649.74 C 304.59 649.72 300.35 651.13 296.87 653.74 L 204.48 723.63 C 202.71 721.78 200.54 720.52 198.05 720.97 L 198.05 732.07 C 198.05 732.28 198.05 732.49 198.05 732.70 L 198.05 732.70 C 198.18 737.02 201.72 740.46 206.05 740.46 L 860.84 740.46 C 865.17 740.46 868.71 737.02 868.84 732.70 L 868.84 732.70 C 868.86 732.49 868.86 732.28 868.85 732.07 Z" fill="#0c0426" fill-rule="nonzero" node-id="415" stroke="none" target-height="90.73712" target-width="670.81335" target-x="198.05" target-y="649.7248"></path><path d="M 860.84 728.47 L 206.05 728.47 C 202.61 728.47 199.56 726.27 198.47 723.01 C 197.38 719.75 198.49 716.16 201.23 714.09 L 296.86 641.74 C 300.34 639.13 304.58 637.72 308.93 637.74 L 758.00 637.74 C 762.35 637.73 766.58 639.13 770.06 641.74 L 865.70 714.09 C 868.45 716.17 869.55 719.77 868.45 723.03 C 867.35 726.29 864.28 728.48 860.84 728.47 Z" fill="#8c71ff" fill-rule="nonzero" node-id="417" stroke="#1b2e35" stroke-linecap="butt" stroke-width="1" target-height="90.75964" target-width="672.17566" target-x="197.37927" target-y="637.7248"></path><g node-id="701"><path d="M 260.09 691.49 L 318.24 645.84 L 748.66 645.84 L 806.81 691.49 L 260.09 691.49 Z" fill="#ffffff" fill-opacity="0.3" fill-rule="nonzero" group-id="42" node-id="421" stroke="none" target-height="45.649963" target-width="546.72" target-x="260.09" target-y="645.84"></path></g><g node-id="702"><path d="M 611.29 720.77 L 599.80 698.00 C 599.29 696.79 598.11 696.01 596.80 696.00 L 494.64 696.00 C 493.33 696.01 492.15 696.79 491.64 698.00 L 480.16 720.73 C 479.94 721.24 479.99 721.82 480.29 722.29 C 480.59 722.75 481.11 723.04 481.66 723.04 L 609.78 723.04 C 610.33 723.03 610.83 722.76 611.13 722.30 C 611.44 721.85 611.50 721.28 611.29 720.77 Z" fill="#ffffff" fill-opacity="0.25" fill-rule="nonzero" group-id="43" node-id="426" stroke="none" target-height="27.04004" target-width="131.55676" target-x="479.93823" target-y="696"></path></g><path d="M 335.93 660.24 L 313.12 660.24 C 312.45 660.24 312.58 659.73 313.42 659.09 L 316.47 656.77 C 317.25 656.15 318.19 655.75 319.18 655.61 L 341.38 655.61 C 342.03 655.61 341.96 656.13 341.22 656.77 L 338.50 659.09 C 337.78 659.72 336.88 660.12 335.93 660.24 Z" fill="#0c0426" fill-rule="nonzero" node-id="429" stroke="none" target-height="4.630005" target-width="29.579987" target-x="312.45" target-y="655.61"></path><path d="M 366.89 660.24 L 344.08 660.24 C 343.40 660.24 343.45 659.73 344.17 659.09 L 346.81 656.77 C 347.51 656.14 348.38 655.74 349.31 655.61 L 371.51 655.61 C 372.17 655.61 372.19 656.13 371.56 656.77 L 369.25 659.09 C 368.62 659.73 367.78 660.13 366.89 660.24 Z" fill="#0c0426" fill-rule="nonzero" node-id="431" stroke="none" target-height="4.630005" target-width="28.790009" target-x="343.4" target-y="655.61"></path><path d="M 397.85 660.24 L 375.00 660.24 C 374.32 660.24 374.27 659.73 374.88 659.09 L 377.11 656.77 C 377.72 656.13 378.53 655.72 379.40 655.61 L 401.61 655.61 C 402.26 655.61 402.37 656.13 401.85 656.77 L 400.00 659.09 C 399.46 659.74 398.69 660.15 397.85 660.24 Z" fill="#0c0426" fill-rule="nonzero" node-id="433" stroke="none" target-height="4.630005" target-width="28.100006" target-x="374.27" target-y="655.61"></path><path d="M 428.81 660.24 L 406.00 660.24 C 405.32 660.24 405.18 659.73 405.68 659.09 L 407.49 656.77 C 408.00 656.12 408.76 655.70 409.58 655.61 L 431.78 655.61 C 432.43 655.61 432.64 656.13 432.23 656.77 L 430.76 659.09 C 430.32 659.75 429.60 660.17 428.81 660.24 Z" fill="#0c0426" fill-rule="nonzero" node-id="435" stroke="none" target-height="4.630005" target-width="27.460022" target-x="405.18" target-y="655.61"></path><path d="M 459.77 660.24 L 437.00 660.24 C 436.33 660.24 436.10 659.73 436.48 659.09 L 437.88 656.77 C 438.29 656.11 438.99 655.68 439.76 655.61 L 461.96 655.61 C 462.62 655.61 462.91 656.13 462.62 656.77 L 461.56 659.09 C 461.22 659.77 460.53 660.21 459.77 660.24 Z" fill="#0c0426" fill-rule="nonzero" node-id="437" stroke="none" target-height="4.630005" target-width="26.809998" target-x="436.1" target-y="655.61"></path><path d="M 490.72 660.24 L 467.91 660.24 C 467.62 660.27 467.34 660.14 467.19 659.89 C 467.03 659.65 467.03 659.34 467.18 659.09 L 468.18 656.77 C 468.48 656.11 469.12 655.66 469.85 655.61 L 492.00 655.61 C 492.29 655.59 492.58 655.72 492.75 655.95 C 492.93 656.19 492.97 656.50 492.87 656.77 L 492.22 659.09 C 492.01 659.75 491.41 660.21 490.72 660.24 Z" fill="#0c0426" fill-rule="nonzero" node-id="439" stroke="none" target-height="4.682678" target-width="25.943146" target-x="467.03015" target-y="655.5878"></path><path d="M 521.68 660.24 L 498.87 660.24 C 498.57 660.27 498.28 660.14 498.10 659.91 C 497.91 659.68 497.85 659.37 497.94 659.09 L 498.50 656.77 C 498.69 656.11 499.28 655.64 499.97 655.61 L 522.18 655.61 C 522.49 655.58 522.79 655.70 523.00 655.93 C 523.21 656.16 523.30 656.47 523.25 656.77 L 523.02 659.09 C 522.92 659.76 522.35 660.25 521.68 660.24 Z" fill="#0c0426" fill-rule="nonzero" node-id="441" stroke="none" target-height="4.682373" target-width="25.448364" target-x="497.85205" target-y="655.5843"></path><path d="M 552.64 660.24 L 529.83 660.24 C 529.52 660.25 529.22 660.14 529.00 659.92 C 528.79 659.70 528.67 659.40 528.69 659.09 L 528.84 656.77 C 528.90 656.11 529.45 655.61 530.11 655.61 L 552.31 655.61 C 552.97 655.61 553.52 656.11 553.59 656.77 L 553.77 659.09 C 553.79 659.40 553.68 659.70 553.46 659.92 C 553.25 660.14 552.95 660.25 552.64 660.24 Z" fill="#0c0426" fill-rule="nonzero" node-id="443" stroke="none" target-height="4.6449585" target-width="25.117676" target-x="528.67267" target-y="655.61"></path><path d="M 583.60 660.24 L 560.79 660.24 C 560.12 660.24 559.54 659.75 559.44 659.09 L 559.18 656.77 C 559.13 656.47 559.22 656.16 559.43 655.93 C 559.64 655.71 559.93 655.59 560.24 655.61 L 582.44 655.61 C 583.13 655.64 583.73 656.11 583.93 656.77 L 584.52 659.09 C 584.61 659.37 584.56 659.68 584.37 659.91 C 584.19 660.15 583.90 660.27 583.60 660.24 Z" fill="#0c0426" fill-rule="nonzero" node-id="445" stroke="none" target-height="4.680725" target-width="25.4823" target-x="559.1301" target-y="655.5875"></path><path d="M 614.56 660.24 L 591.75 660.24 C 591.04 660.22 590.42 659.76 590.19 659.09 L 589.52 656.77 C 589.41 656.50 589.45 656.19 589.62 655.96 C 589.80 655.72 590.08 655.59 590.37 655.61 L 612.58 655.61 C 613.31 655.66 613.95 656.11 614.26 656.77 L 615.26 659.09 C 615.41 659.33 615.42 659.64 615.27 659.88 C 615.12 660.13 614.84 660.27 614.56 660.24 Z" fill="#0c0426" fill-rule="nonzero" node-id="447" stroke="none" target-height="4.6761475" target-width="26.003967" target-x="589.41284" target-y="655.5896"></path><path d="M 645.52 660.24 L 622.71 660.24 C 621.96 660.20 621.29 659.76 620.95 659.09 L 619.86 656.77 C 619.56 656.13 619.86 655.61 620.51 655.61 L 642.71 655.61 C 643.48 655.69 644.18 656.11 644.60 656.77 L 646.03 659.09 C 646.42 659.73 646.19 660.24 645.52 660.24 Z" fill="#0c0426" fill-rule="nonzero" node-id="449" stroke="none" target-height="4.630005" target-width="26.859985" target-x="619.56" target-y="655.61"></path><path d="M 676.48 660.24 L 653.67 660.24 C 652.86 660.18 652.13 659.76 651.67 659.09 L 650.17 656.77 C 649.76 656.13 649.95 655.61 650.61 655.61 L 672.81 655.61 C 673.64 655.70 674.39 656.12 674.91 656.77 L 676.75 659.09 C 677.29 659.73 677.15 660.24 676.48 660.24 Z" fill="#0c0426" fill-rule="nonzero" node-id="451" stroke="none" target-height="4.630005" target-width="27.529968" target-x="649.76" target-y="655.61"></path><path d="M 707.44 660.24 L 684.62 660.24 C 683.78 660.15 683.00 659.74 682.45 659.09 L 680.54 656.77 C 680.01 656.13 680.12 655.61 680.77 655.61 L 703.00 655.61 C 703.88 655.72 704.70 656.13 705.31 656.77 L 707.57 659.09 C 708.15 659.73 708.11 660.24 707.44 660.24 Z" fill="#0c0426" fill-rule="nonzero" node-id="453" stroke="none" target-height="4.630005" target-width="28.139954" target-x="680.01" target-y="655.61"></path><path d="M 753.24 660.24 L 715.34 660.24 C 714.62 660.16 713.95 659.83 713.44 659.32 L 710.64 656.53 C 710.13 656.03 710.14 655.61 710.64 655.61 L 747.54 655.61 C 748.30 655.72 749.02 656.04 749.62 656.53 L 753.06 659.32 C 753.70 659.83 753.78 660.24 753.24 660.24 Z" fill="#0c0426" fill-rule="nonzero" node-id="455" stroke="none" target-height="4.630005" target-width="43.649963" target-x="710.13" target-y="655.61"></path><path d="M 737.51 666.93 L 761.20 666.93 C 761.90 666.93 761.83 666.41 761.04 665.78 L 758.18 663.46 C 757.42 662.83 756.50 662.43 755.52 662.30 L 732.44 662.30 C 731.76 662.30 731.77 662.82 732.44 663.46 L 734.97 665.78 C 735.67 666.42 736.56 666.82 737.51 666.93 Z" fill="#0c0426" fill-rule="nonzero" node-id="457" stroke="none" target-height="4.630005" target-width="30.139954" target-x="731.76" target-y="662.3"></path><path d="M 705.35 666.93 L 729.00 666.93 C 729.70 666.93 729.73 666.41 729.05 665.78 L 726.60 663.46 C 725.93 662.82 725.07 662.41 724.15 662.30 L 701.11 662.30 C 700.43 662.30 700.35 662.82 700.93 663.46 L 703.04 665.78 C 703.65 666.43 704.47 666.84 705.35 666.93 Z" fill="#0c0426" fill-rule="nonzero" node-id="459" stroke="none" target-height="4.630005" target-width="29.380005" target-x="700.35" target-y="662.3"></path><path d="M 673.20 666.93 L 696.89 666.93 C 697.59 666.93 697.71 666.41 697.15 665.78 L 695.15 663.46 C 694.57 662.81 693.77 662.40 692.91 662.30 L 669.79 662.30 C 669.10 662.30 668.93 662.82 669.39 663.46 L 671.09 665.78 C 671.60 666.44 672.37 666.86 673.20 666.93 Z" fill="#0c0426" fill-rule="nonzero" node-id="461" stroke="none" target-height="4.630005" target-width="28.78003" target-x="668.93" target-y="662.3"></path><path d="M 641.05 666.93 L 664.74 666.93 C 665.44 666.93 665.65 666.41 665.20 665.78 L 663.58 663.46 C 663.11 662.81 662.38 662.39 661.58 662.30 L 638.46 662.30 C 637.78 662.30 637.46 662.82 637.86 663.46 L 639.15 665.78 C 639.56 666.45 640.27 666.88 641.05 666.93 Z" fill="#0c0426" fill-rule="nonzero" node-id="463" stroke="none" target-height="4.630005" target-width="28.190002" target-x="637.46" target-y="662.3"></path><path d="M 608.90 666.93 L 632.59 666.93 C 633.29 666.93 633.59 666.41 633.25 665.78 L 632.05 663.46 C 631.67 662.79 630.98 662.35 630.21 662.30 L 607.13 662.30 C 606.84 662.27 606.55 662.40 606.38 662.64 C 606.22 662.88 606.20 663.20 606.33 663.46 L 607.20 665.78 C 607.51 666.45 608.16 666.89 608.90 666.93 Z" fill="#0c0426" fill-rule="nonzero" node-id="465" stroke="none" target-height="4.6624146" target-width="27.394287" target-x="606.19574" target-y="662.2676"></path><path d="M 576.74 666.93 L 600.44 666.93 C 600.74 666.97 601.03 666.85 601.21 666.61 C 601.39 666.37 601.43 666.05 601.31 665.78 L 600.52 663.46 C 600.25 662.79 599.61 662.33 598.89 662.30 L 575.81 662.30 C 575.51 662.30 575.23 662.42 575.04 662.65 C 574.85 662.87 574.76 663.17 574.81 663.46 L 575.26 665.78 C 575.44 666.45 576.05 666.92 576.74 666.93 Z" fill="#0c0426" fill-rule="nonzero" node-id="467" stroke="none" target-height="4.672241" target-width="26.664734" target-x="574.7627" target-y="662.2962"></path><path d="M 544.59 666.93 L 568.28 666.93 C 568.59 666.96 568.89 666.84 569.10 666.62 C 569.31 666.39 569.41 666.08 569.36 665.78 L 568.98 663.46 C 568.84 662.79 568.25 662.30 567.56 662.30 L 544.48 662.30 C 544.16 662.29 543.86 662.41 543.63 662.62 C 543.40 662.84 543.27 663.14 543.27 663.46 L 543.27 665.78 C 543.29 666.11 543.44 666.41 543.69 666.63 C 543.94 666.85 544.26 666.95 544.59 666.93 Z" fill="#0c0426" fill-rule="nonzero" node-id="469" stroke="none" target-height="4.6691895" target-width="26.137512" target-x="543.27" target-y="662.2892"></path><path d="M 512.44 666.93 L 536.13 666.93 C 536.80 666.96 537.37 666.45 537.42 665.78 L 537.42 663.46 C 537.42 663.14 537.29 662.84 537.06 662.62 C 536.83 662.41 536.53 662.29 536.21 662.30 L 513.15 662.30 C 512.46 662.31 511.87 662.79 511.73 663.46 L 511.36 665.78 C 511.31 666.08 511.41 666.39 511.62 666.62 C 511.83 666.84 512.13 666.96 512.44 666.93 Z" fill="#0c0426" fill-rule="nonzero" node-id="471" stroke="none" target-height="4.6696167" target-width="26.107544" target-x="511.31244" target-y="662.2892"></path><path d="M 480.29 666.93 L 504.00 666.93 C 504.70 666.93 505.31 666.46 505.49 665.78 L 505.94 663.46 C 505.99 663.17 505.90 662.87 505.71 662.65 C 505.52 662.42 505.24 662.30 504.94 662.30 L 481.83 662.30 C 481.11 662.33 480.47 662.79 480.20 663.46 L 479.41 665.78 C 479.30 666.06 479.34 666.37 479.52 666.61 C 479.70 666.84 479.99 666.97 480.29 666.93 Z" fill="#0c0426" fill-rule="nonzero" node-id="473" stroke="none" target-height="4.669861" target-width="26.689362" target-x="479.29794" target-y="662.2962"></path><path d="M 448.14 666.93 L 471.83 666.93 C 472.57 666.90 473.22 666.46 473.52 665.78 L 474.39 663.46 C 474.52 663.20 474.49 662.88 474.33 662.64 C 474.16 662.40 473.87 662.27 473.58 662.30 L 450.50 662.30 C 449.73 662.36 449.05 662.79 448.67 663.46 L 447.47 665.78 C 447.14 666.41 447.44 666.93 448.14 666.93 Z" fill="#0c0426" fill-rule="nonzero" node-id="475" stroke="none" target-height="4.659546" target-width="27.378387" target-x="447.14" target-y="662.27045"></path><path d="M 416.00 666.93 L 439.69 666.93 C 440.47 666.88 441.18 666.45 441.60 665.78 L 442.88 663.46 C 443.23 662.82 442.96 662.30 442.28 662.30 L 419.17 662.30 C 418.37 662.38 417.64 662.81 417.17 663.46 L 415.55 665.78 C 415.08 666.41 415.28 666.93 416.00 666.93 Z" fill="#0c0426" fill-rule="nonzero" node-id="477" stroke="none" target-height="4.630005" target-width="28.150024" target-x="415.08" target-y="662.3"></path><path d="M 383.83 666.93 L 407.52 666.93 C 408.35 666.86 409.12 666.44 409.63 665.78 L 411.32 663.46 C 411.79 662.82 411.61 662.30 410.93 662.30 L 387.85 662.30 C 386.98 662.39 386.19 662.81 385.61 663.46 L 383.61 665.78 C 383.00 666.41 383.13 666.93 383.83 666.93 Z" fill="#0c0426" fill-rule="nonzero" node-id="479" stroke="none" target-height="4.630005" target-width="28.790009" target-x="383" target-y="662.3"></path><path d="M 351.68 666.93 L 375.37 666.93 C 376.25 666.84 377.07 666.43 377.68 665.78 L 379.79 663.46 C 380.37 662.82 380.28 662.30 379.60 662.30 L 356.52 662.30 C 355.60 662.41 354.74 662.82 354.07 663.46 L 351.63 665.78 C 351.00 666.41 351.00 666.93 351.68 666.93 Z" fill="#0c0426" fill-rule="nonzero" node-id="481" stroke="none" target-height="4.630005" target-width="29.369995" target-x="351" target-y="662.3"></path><path d="M 304.11 666.93 L 343.47 666.93 C 344.22 666.84 344.92 666.52 345.47 666.01 L 348.47 663.22 C 349.02 662.71 349.03 662.30 348.47 662.30 L 310.17 662.30 C 309.37 662.41 308.61 662.72 307.98 663.22 L 304.31 666.00 C 303.64 666.52 303.55 666.93 304.11 666.93 Z" fill="#0c0426" fill-rule="nonzero" node-id="483" stroke="none" target-height="4.630005" target-width="45.48001" target-x="303.55" target-y="662.3"></path><path d="M 688.92 673.62 L 713.49 673.62 C 714.21 673.62 714.32 673.10 713.73 672.47 L 711.55 670.14 C 710.92 669.50 710.09 669.09 709.20 669.00 L 685.20 669.00 C 684.49 669.00 684.32 669.52 684.82 670.15 L 686.66 672.48 C 687.23 673.15 688.04 673.56 688.92 673.62 Z" fill="#0c0426" fill-rule="nonzero" node-id="485" stroke="none" target-height="4.619995" target-width="30" target-x="684.32" target-y="669"></path><path d="M 655.18 673.62 L 679.75 673.62 C 680.47 673.62 680.67 673.10 680.19 672.47 L 678.44 670.14 C 677.91 669.48 677.13 669.06 676.29 668.99 L 652.29 668.99 C 651.58 668.99 651.29 669.51 651.71 670.14 L 653.12 672.47 C 653.59 673.15 654.35 673.58 655.18 673.62 Z" fill="#0c0426" fill-rule="nonzero" node-id="487" stroke="none" target-height="4.630005" target-width="29.380005" target-x="651.29" target-y="668.99"></path><path d="M 621.44 673.62 L 646.00 673.62 C 646.72 673.62 647.00 673.10 646.65 672.47 L 645.32 670.14 C 644.89 669.47 644.17 669.04 643.38 668.99 L 619.38 668.99 C 619.09 668.95 618.80 669.08 618.63 669.32 C 618.46 669.56 618.45 669.88 618.59 670.14 L 619.59 672.47 C 619.95 673.16 620.66 673.60 621.44 673.62 Z" fill="#0c0426" fill-rule="nonzero" node-id="489" stroke="none" target-height="4.6706543" target-width="28.552917" target-x="618.4471" target-y="668.94934"></path><path d="M 587.70 673.62 L 612.27 673.62 C 613.00 673.62 613.38 673.10 613.13 672.47 L 612.22 670.14 C 611.90 669.46 611.24 669.02 610.49 668.99 L 586.49 668.99 C 586.19 668.95 585.89 669.07 585.68 669.30 C 585.48 669.53 585.41 669.84 585.49 670.14 L 586.06 672.47 C 586.30 673.17 586.96 673.64 587.70 673.62 Z" fill="#0c0426" fill-rule="nonzero" node-id="491" stroke="none" target-height="4.683655" target-width="27.968567" target-x="585.41144" target-y="668.9532"></path><path d="M 554.00 673.62 L 578.57 673.62 C 578.88 673.65 579.18 673.53 579.38 673.30 C 579.59 673.08 579.69 672.77 579.64 672.47 L 579.15 670.14 C 578.95 669.46 578.33 668.99 577.62 668.99 L 553.62 668.99 C 553.30 668.97 552.99 669.08 552.76 669.30 C 552.54 669.52 552.41 669.82 552.42 670.14 L 552.57 672.47 C 552.67 673.17 553.30 673.67 554.00 673.62 Z" fill="#0c0426" fill-rule="nonzero" node-id="493" stroke="none" target-height="4.7021484" target-width="27.276245" target-x="552.4107" target-y="668.9672"></path><path d="M 520.22 673.62 L 544.79 673.62 C 545.11 673.64 545.43 673.53 545.67 673.32 C 545.91 673.10 546.06 672.79 546.07 672.47 L 545.99 670.14 C 545.93 669.47 545.35 668.97 544.68 668.99 L 520.68 668.99 C 519.99 668.98 519.39 669.46 519.26 670.14 L 519.00 672.47 C 518.98 672.79 519.10 673.11 519.34 673.33 C 519.58 673.55 519.90 673.66 520.22 673.62 Z" fill="#0c0426" fill-rule="nonzero" node-id="495" stroke="none" target-height="4.6934814" target-width="27.09021" target-x="518.9798" target-y="668.9658"></path><path d="M 486.48 673.62 L 511.05 673.62 C 511.76 673.63 512.38 673.16 512.54 672.47 L 512.88 670.14 C 512.93 669.83 512.83 669.51 512.61 669.29 C 512.39 669.06 512.08 668.95 511.77 668.99 L 487.77 668.99 C 487.05 669.01 486.40 669.46 486.15 670.14 L 485.47 672.47 C 485.37 672.77 485.44 673.10 485.65 673.33 C 485.85 673.57 486.17 673.68 486.48 673.62 Z" fill="#0c0426" fill-rule="nonzero" node-id="497" stroke="none" target-height="4.7262573" target-width="27.55661" target-x="485.3729" target-y="668.9515"></path><path d="M 452.74 673.62 L 477.31 673.62 C 478.05 673.61 478.72 673.16 479.01 672.47 L 479.77 670.14 C 479.88 669.86 479.83 669.55 479.65 669.31 C 479.46 669.07 479.17 668.95 478.87 668.99 L 454.87 668.99 C 454.10 669.03 453.41 669.46 453.04 670.14 L 451.94 672.47 C 451.67 673.10 452.00 673.62 452.74 673.62 Z" fill="#0c0426" fill-rule="nonzero" node-id="499" stroke="none" target-height="4.6677856" target-width="28.208038" target-x="451.67" target-y="668.9522"></path><path d="M 419.00 673.62 L 443.57 673.62 C 444.36 673.58 445.07 673.15 445.47 672.47 L 446.66 670.14 C 446.83 669.91 446.84 669.60 446.70 669.36 C 446.56 669.11 446.28 668.97 446.00 669.00 L 422.00 669.00 C 421.20 669.07 420.47 669.49 420.00 670.15 L 418.47 672.48 C 418.00 673.10 418.28 673.62 419.00 673.62 Z" fill="#0c0426" fill-rule="nonzero" node-id="501" stroke="none" target-height="4.651001" target-width="28.844269" target-x="418" target-y="668.969"></path><path d="M 385.26 673.62 L 409.83 673.62 C 410.67 673.56 411.44 673.14 411.94 672.47 L 413.55 670.14 C 413.99 669.51 413.77 668.99 413.06 668.99 L 389.06 668.99 C 388.19 669.07 387.39 669.48 386.82 670.14 L 384.87 672.47 C 384.38 673.10 384.54 673.62 385.26 673.62 Z" fill="#0c0426" fill-rule="nonzero" node-id="503" stroke="none" target-height="4.630005" target-width="29.609985" target-x="384.37997" target-y="668.99"></path><path d="M 351.52 673.62 L 376.09 673.62 C 376.98 673.54 377.81 673.13 378.41 672.47 L 380.41 670.14 C 380.97 669.51 380.84 668.99 380.14 668.99 L 356.14 668.99 C 355.22 669.09 354.35 669.50 353.68 670.14 L 351.32 672.47 C 350.73 673.10 350.80 673.62 351.52 673.62 Z" fill="#0c0426" fill-rule="nonzero" node-id="505" stroke="none" target-height="4.630005" target-width="30.23999" target-x="350.72998" target-y="668.99"></path><path d="M 295.42 673.62 L 342.54 673.62 C 343.35 673.53 344.11 673.18 344.70 672.62 L 347.50 669.97 C 348.07 669.42 348.04 668.97 347.44 668.97 L 301.44 668.97 C 300.57 669.08 299.74 669.43 299.05 669.97 L 295.56 672.62 C 294.88 673.18 294.80 673.62 295.42 673.62 Z" fill="#0c0426" fill-rule="nonzero" node-id="507" stroke="none" target-height="4.6500244" target-width="53.27002" target-x="294.8" target-y="668.97"></path><path d="M 722.47 673.62 L 769.59 673.62 C 770.21 673.62 770.17 673.18 769.50 672.62 L 766.22 670.00 C 765.56 669.45 764.76 669.10 763.91 669.00 L 718.00 669.00 C 717.40 669.00 717.34 669.44 717.86 670.00 L 720.44 672.65 C 720.99 673.19 721.70 673.54 722.47 673.62 Z" fill="#0c0426" fill-rule="nonzero" node-id="509" stroke="none" target-height="4.619995" target-width="52.869995" target-x="717.34" target-y="669"></path><path d="M 645.71 687.00 L 672.05 687.00 C 672.82 687.00 673.11 686.49 672.69 685.85 L 671.14 683.53 C 670.63 682.84 669.85 682.42 669.00 682.37 L 643.28 682.37 C 642.52 682.37 642.17 682.89 642.50 683.53 L 643.71 685.85 C 644.14 686.54 644.89 686.98 645.71 687.00 Z" fill="#0c0426" fill-rule="nonzero" node-id="511" stroke="none" target-height="4.630005" target-width="30.940002" target-x="642.17" target-y="682.37"></path><path d="M 681.47 687.00 L 706.76 687.00 C 708.09 687.00 708.91 686.69 708.58 686.31 L 706.77 684.16 C 705.88 683.63 704.85 683.39 703.82 683.47 L 679.00 683.47 C 677.69 683.47 676.85 683.78 677.11 684.16 L 678.60 686.31 C 678.85 686.70 680.14 687.00 681.47 687.00 Z" fill="#0c0426" fill-rule="nonzero" node-id="513" stroke="none" target-height="3.6105957" target-width="32.059998" target-x="676.85" target-y="683.3894"></path><path d="M 716.58 687.00 L 749.72 687.00 C 750.72 687.00 750.82 686.34 749.96 685.53 L 747.88 683.53 C 746.96 682.69 745.80 682.18 744.56 682.06 L 712.24 682.06 C 711.24 682.06 711.06 682.72 711.77 683.53 L 713.49 685.53 C 714.30 686.39 715.40 686.91 716.58 687.00 Z" fill="#0c0426" fill-rule="nonzero" node-id="515" stroke="none" target-height="4.9400024" target-width="39.75995" target-x="711.06006" target-y="682.06"></path><path d="M 759.54 687.00 L 784.82 687.00 C 786.16 687.00 786.82 686.69 786.38 686.31 L 783.73 684.16 C 782.73 683.66 781.62 683.42 780.51 683.47 L 755.67 683.47 C 754.36 683.47 753.67 683.78 754.05 684.16 L 756.38 686.31 C 757.35 686.82 758.44 687.06 759.54 687.00 Z" fill="#0c0426" fill-rule="nonzero" node-id="517" stroke="none" target-height="3.6415405" target-width="33.149963" target-x="753.67" target-y="683.42206"></path><path d="M 348.00 687.00 L 374.50 687.00 C 375.41 686.94 376.25 686.52 376.86 685.85 L 378.76 683.53 C 379.28 682.89 379.09 682.37 378.33 682.37 L 352.43 682.37 C 351.49 682.45 350.60 682.86 349.93 683.53 L 347.69 685.85 C 347.08 686.49 347.21 687.00 348.00 687.00 Z" fill="#0c0426" fill-rule="nonzero" node-id="519" stroke="none" target-height="4.630005" target-width="32.200073" target-x="347.07996" target-y="682.37"></path><path d="M 383.10 687.00 L 416.35 687.00 C 417.30 686.97 418.17 686.49 418.71 685.71 L 419.96 683.66 C 420.40 682.95 420.06 682.37 419.21 682.37 L 386.73 682.37 C 385.74 682.44 384.82 682.91 384.17 683.66 L 382.54 685.71 C 382.00 686.44 382.23 687.00 383.10 687.00 Z" fill="#0c0426" fill-rule="nonzero" node-id="521" stroke="none" target-height="4.630005" target-width="38.399994" target-x="382" target-y="682.37"></path><path d="M 603.87 687.00 L 637.12 687.00 C 637.99 687.00 638.41 686.43 638.06 685.71 L 637.06 683.66 C 636.61 682.89 635.79 682.40 634.89 682.37 L 602.40 682.37 C 601.55 682.37 601.04 682.95 601.26 683.66 L 601.90 685.71 C 602.23 686.50 603.01 687.01 603.87 687.00 Z" fill="#0c0426" fill-rule="nonzero" node-id="523" stroke="none" target-height="4.6432495" target-width="37.369995" target-x="601.04" target-y="682.37"></path><path d="M 313.00 687.00 L 339.51 687.00 C 340.47 686.92 341.37 686.51 342.07 685.85 L 344.38 683.53 C 345.01 682.89 344.91 682.37 344.15 682.37 L 318.25 682.37 C 317.25 682.47 316.31 682.87 315.55 683.53 L 313.00 685.86 C 312.22 686.49 312.26 687.00 313.00 687.00 Z" fill="#0c0426" fill-rule="nonzero" node-id="525" stroke="none" target-height="4.630005" target-width="32.79001" target-x="312.22" target-y="682.37"></path><path d="M 278.09 687.00 L 304.60 687.00 C 305.62 686.90 306.58 686.50 307.37 685.85 L 310.07 683.53 C 310.82 682.89 310.81 682.37 310.07 682.37 L 284.17 682.37 C 283.11 682.49 282.11 682.89 281.26 683.53 L 278.26 685.85 C 277.36 686.49 277.31 687.00 278.09 687.00 Z" fill="#0c0426" fill-rule="nonzero" node-id="527" stroke="none" target-height="4.630005" target-width="33.51001" target-x="277.31" target-y="682.37"></path><path d="M 425.71 687.00 L 594.51 687.00 C 595.71 687.00 596.51 686.20 596.18 685.22 L 595.88 684.16 C 595.46 683.07 594.41 682.36 593.25 682.37 L 428.36 682.37 C 427.08 682.42 425.90 683.09 425.19 684.16 L 424.57 685.22 C 424.00 686.21 424.51 687.00 425.71 687.00 Z" fill="#0c0426" fill-rule="nonzero" node-id="529" stroke="none" target-height="4.640564" target-width="172.51001" target-x="424" target-y="682.35944"></path><path d="M 674.46 680.31 L 699.91 680.31 C 700.66 680.31 700.84 679.79 700.31 679.16 L 698.38 676.83 C 697.79 676.17 696.97 675.76 696.09 675.68 L 671.25 675.68 C 670.51 675.68 670.25 676.20 670.71 676.83 L 672.31 679.16 C 672.83 679.84 673.61 680.26 674.46 680.31 Z" fill="#0c0426" fill-rule="nonzero" node-id="531" stroke="none" target-height="4.630005" target-width="30.590027" target-x="670.25" target-y="675.68"></path><path d="M 640.00 680.31 L 665.45 680.31 C 666.20 680.31 666.45 679.79 666.06 679.16 L 664.54 676.83 C 664.05 676.16 663.29 675.74 662.46 675.68 L 637.64 675.68 C 636.90 675.68 636.57 676.20 636.90 676.83 L 638.08 679.16 C 638.49 679.84 639.21 680.27 640.00 680.31 Z" fill="#0c0426" fill-rule="nonzero" node-id="533" stroke="none" target-height="4.630005" target-width="29.880005" target-x="636.57" target-y="675.68"></path><path d="M 605.59 680.31 L 631.00 680.31 C 631.75 680.31 632.11 679.79 631.81 679.16 L 630.70 676.83 C 630.32 676.15 629.61 675.71 628.83 675.68 L 604.00 675.68 C 603.26 675.68 602.84 676.20 603.05 676.83 L 603.82 679.16 C 604.13 679.86 604.82 680.32 605.59 680.31 Z" fill="#0c0426" fill-rule="nonzero" node-id="535" stroke="none" target-height="4.637085" target-width="29.269958" target-x="602.84" target-y="675.68"></path><path d="M 571.16 680.31 L 596.61 680.31 C 597.36 680.31 597.81 679.79 597.61 679.16 L 596.92 676.83 C 596.65 676.14 595.99 675.69 595.25 675.68 L 570.42 675.68 C 570.10 675.65 569.79 675.75 569.57 675.98 C 569.34 676.20 569.23 676.51 569.26 676.83 L 569.62 679.16 C 569.80 679.86 570.44 680.33 571.16 680.31 Z" fill="#0c0426" fill-rule="nonzero" node-id="537" stroke="none" target-height="4.6882324" target-width="28.582153" target-x="569.22784" target-y="675.64514"></path><path d="M 536.72 680.31 L 562.17 680.31 C 562.49 680.35 562.81 680.24 563.05 680.02 C 563.28 679.80 563.41 679.48 563.39 679.16 L 563.11 676.83 C 562.97 676.14 562.35 675.66 561.65 675.68 L 536.81 675.68 C 536.12 675.64 535.52 676.14 535.45 676.83 L 535.39 679.16 C 535.41 679.49 535.57 679.80 535.82 680.01 C 536.07 680.23 536.39 680.33 536.72 680.31 Z" fill="#0c0426" fill-rule="nonzero" node-id="539" stroke="none" target-height="4.70697" target-width="28.016602" target-x="535.39" target-y="675.6387"></path><path d="M 502.29 680.31 L 527.74 680.31 C 528.44 680.35 529.06 679.85 529.17 679.16 L 529.30 676.83 C 529.30 676.51 529.16 676.20 528.92 675.98 C 528.68 675.76 528.36 675.66 528.04 675.68 L 503.20 675.68 C 502.48 675.67 501.84 676.14 501.63 676.83 L 501.16 679.16 C 501.00 679.79 501.54 680.31 502.29 680.31 Z" fill="#0c0426" fill-rule="nonzero" node-id="541" stroke="none" target-height="4.69458" target-width="28.299988" target-x="501" target-y="675.6551"></path><path d="M 467.86 680.31 L 493.31 680.31 C 494.04 680.32 494.70 679.86 494.94 679.16 L 495.48 676.83 C 495.53 676.53 495.43 676.23 495.23 676.00 C 495.03 675.78 494.73 675.66 494.43 675.68 L 469.59 675.68 C 468.83 675.70 468.14 676.14 467.82 676.83 L 466.93 679.16 C 466.69 679.79 467.10 680.31 467.86 680.31 Z" fill="#0c0426" fill-rule="nonzero" node-id="543" stroke="none" target-height="4.657837" target-width="28.835938" target-x="466.69" target-y="675.6614"></path><path d="M 433.42 680.31 L 458.87 680.31 C 459.65 680.29 460.35 679.85 460.71 679.16 L 461.71 676.83 C 461.97 676.20 461.59 675.68 460.86 675.68 L 436.00 675.68 C 435.19 675.72 434.44 676.14 434.00 676.83 L 432.71 679.16 C 432.35 679.79 432.67 680.31 433.42 680.31 Z" fill="#0c0426" fill-rule="nonzero" node-id="545" stroke="none" target-height="4.630005" target-width="29.619965" target-x="432.35" target-y="675.68"></path><path d="M 399.00 680.31 L 424.45 680.31 C 425.26 680.25 425.99 679.83 426.45 679.16 L 427.82 676.83 C 428.20 676.20 427.91 675.68 427.18 675.68 L 402.36 675.68 C 401.51 675.75 400.72 676.16 400.19 676.83 L 398.48 679.16 C 398.00 679.79 398.24 680.31 399.00 680.31 Z" fill="#0c0426" fill-rule="nonzero" node-id="547" stroke="none" target-height="4.630005" target-width="30.200012" target-x="398" target-y="675.68"></path><path d="M 364.55 680.31 L 390.00 680.31 C 390.87 680.25 391.69 679.83 392.25 679.16 L 394.04 676.83 C 394.53 676.20 394.33 675.68 393.60 675.68 L 368.75 675.68 C 367.84 675.77 367.00 676.17 366.37 676.83 L 364.25 679.16 C 363.67 679.79 363.80 680.31 364.55 680.31 Z" fill="#0c0426" fill-rule="nonzero" node-id="549" stroke="none" target-height="4.630005" target-width="30.860016" target-x="363.66998" target-y="675.68"></path><path d="M 286.87 680.31 L 355.56 680.31 C 356.50 680.23 357.37 679.81 358.03 679.14 L 360.21 676.85 C 360.82 676.20 360.71 675.68 359.97 675.68 L 292.97 675.68 C 291.92 675.80 290.93 676.21 290.09 676.85 L 287.09 679.14 C 286.19 679.79 286.11 680.31 286.87 680.31 Z" fill="#0c0426" fill-rule="nonzero" node-id="551" stroke="none" target-height="4.630005" target-width="74.71002" target-x="286.11" target-y="675.68"></path><path d="M 708.91 680.31 L 777.59 680.31 C 778.35 680.31 778.32 679.79 777.53 679.14 L 774.69 676.85 C 773.90 676.20 772.93 675.79 771.91 675.68 L 704.91 675.68 C 704.17 675.68 704.02 676.20 704.58 676.85 L 706.58 679.14 C 707.19 679.80 708.02 680.22 708.91 680.31 Z" fill="#0c0426" fill-rule="nonzero" node-id="553" stroke="none" target-height="4.630005" target-width="74.329956" target-x="704.01996" target-y="675.68"></path><path d="M 344.89 653.55 L 321.64 653.55 C 321.12 653.55 321.24 653.14 321.91 652.63 L 323.24 651.63 C 323.86 651.14 324.59 650.82 325.37 650.71 L 348.22 650.71 C 348.73 650.71 348.66 651.12 348.07 651.63 L 346.90 652.63 C 346.33 653.13 345.64 653.45 344.89 653.55 Z" fill="#0c0426" fill-rule="nonzero" node-id="555" stroke="none" target-height="2.8399658" target-width="27.610016" target-x="321.12" target-y="650.71"></path><path d="M 375.67 653.55 L 352.42 653.55 C 351.90 653.55 351.95 653.14 352.52 652.63 L 353.66 651.63 C 354.22 651.13 354.91 650.80 355.66 650.71 L 378.52 650.71 C 379.02 650.71 379.03 651.12 378.52 651.63 L 377.52 652.63 C 377.03 653.14 376.37 653.46 375.67 653.55 Z" fill="#0c0426" fill-rule="nonzero" node-id="557" stroke="none" target-height="2.8399658" target-width="27.130035" target-x="351.89996" target-y="650.71"></path><path d="M 406.45 653.55 L 383.20 653.55 C 382.68 653.55 382.65 653.14 383.13 652.63 L 384.13 651.63 C 384.60 651.13 385.24 650.80 385.92 650.71 L 408.77 650.71 C 409.28 650.71 409.36 651.12 408.96 651.63 L 408.16 652.63 C 407.74 653.15 407.12 653.48 406.45 653.55 Z" fill="#0c0426" fill-rule="nonzero" node-id="559" stroke="none" target-height="2.8399658" target-width="26.709991" target-x="382.65" target-y="650.71"></path><path d="M 437.23 653.55 L 414.00 653.55 C 413.48 653.55 413.37 653.14 413.76 652.63 L 414.53 651.63 C 414.92 651.12 415.51 650.78 416.15 650.71 L 439.00 650.71 C 439.50 650.71 439.66 651.12 439.35 651.63 L 438.74 652.63 C 438.41 653.15 437.85 653.49 437.23 653.55 Z" fill="#0c0426" fill-rule="nonzero" node-id="561" stroke="none" target-height="2.8399658" target-width="26.290009" target-x="413.37" target-y="650.71"></path><path d="M 468.00 653.55 L 444.76 653.55 C 444.24 653.55 444.06 653.14 444.35 652.63 L 444.93 651.63 C 445.24 651.11 445.79 650.77 446.39 650.71 L 469.24 650.71 C 469.75 650.71 469.98 651.12 469.77 651.63 L 469.34 652.63 C 469.09 653.16 468.58 653.51 468.00 653.55 Z" fill="#0c0426" fill-rule="nonzero" node-id="563" stroke="none" target-height="2.8399658" target-width="25.919983" target-x="444.06003" target-y="650.71"></path><path d="M 498.79 653.55 L 475.54 653.55 C 475.31 653.57 475.09 653.46 474.97 653.27 C 474.85 653.07 474.84 652.83 474.96 652.63 L 475.36 651.63 C 475.58 651.11 476.07 650.75 476.64 650.71 L 499.49 650.71 C 499.72 650.70 499.94 650.80 500.08 650.99 C 500.22 651.17 500.26 651.41 500.19 651.63 L 499.95 652.63 C 499.80 653.15 499.33 653.52 498.79 653.55 Z" fill="#0c0426" fill-rule="nonzero" node-id="565" stroke="none" target-height="2.8729858" target-width="25.420593" target-x="474.84235" target-y="650.6982"></path><path d="M 529.57 653.55 L 506.32 653.55 C 506.09 653.56 505.86 653.46 505.71 653.28 C 505.57 653.10 505.51 652.86 505.57 652.63 L 505.78 651.63 C 505.90 651.11 506.36 650.74 506.89 650.71 L 529.75 650.71 C 529.99 650.71 530.22 650.80 530.38 650.98 C 530.55 651.15 530.63 651.39 530.61 651.63 L 530.56 652.63 C 530.52 653.15 530.09 653.55 529.57 653.55 Z" fill="#0c0426" fill-rule="nonzero" node-id="567" stroke="none" target-height="2.8538818" target-width="25.116852" target-x="505.5129" target-y="650.70636"></path><path d="M 560.35 653.55 L 537.10 653.55 C 536.86 653.55 536.62 653.46 536.45 653.28 C 536.27 653.11 536.18 652.87 536.18 652.63 L 536.18 651.63 C 536.19 651.12 536.61 650.71 537.12 650.71 L 560.00 650.71 C 560.51 650.74 560.93 651.13 561.00 651.63 L 561.13 652.63 C 561.16 652.86 561.09 653.09 560.95 653.26 C 560.80 653.44 560.58 653.54 560.35 653.55 Z" fill="#0c0426" fill-rule="nonzero" node-id="569" stroke="none" target-height="2.8428345" target-width="24.984009" target-x="536.1773" target-y="650.7099"></path><path d="M 591.13 653.55 L 567.87 653.55 C 567.34 653.54 566.89 653.15 566.79 652.63 L 566.63 651.63 C 566.58 651.40 566.64 651.16 566.79 650.98 C 566.94 650.80 567.17 650.70 567.40 650.71 L 590.26 650.71 C 590.81 650.74 591.29 651.11 591.46 651.63 L 591.78 652.63 C 591.87 652.84 591.85 653.08 591.71 653.27 C 591.58 653.46 591.36 653.57 591.13 653.55 Z" fill="#0c0426" fill-rule="nonzero" node-id="571" stroke="none" target-height="2.8637085" target-width="25.290588" target-x="566.5805" target-y="650.7016"></path><path d="M 621.91 653.55 L 598.65 653.55 C 598.09 653.51 597.60 653.15 597.40 652.63 L 597.05 651.63 C 596.95 651.43 596.97 651.18 597.09 651.00 C 597.22 650.81 597.43 650.70 597.66 650.71 L 620.51 650.71 C 621.10 650.76 621.62 651.11 621.89 651.63 L 622.39 652.63 C 622.64 653.14 622.42 653.55 621.91 653.55 Z" fill="#0c0426" fill-rule="nonzero" node-id="573" stroke="none" target-height="2.852417" target-width="25.689636" target-x="596.9504" target-y="650.6976"></path><path d="M 652.69 653.55 L 629.43 653.55 C 628.83 653.50 628.30 653.15 628.01 652.63 L 627.48 651.63 C 627.21 651.12 627.40 650.71 627.91 650.71 L 650.77 650.71 C 651.39 650.78 651.95 651.11 652.31 651.63 L 653.00 652.63 C 653.34 653.14 653.20 653.55 652.69 653.55 Z" fill="#0c0426" fill-rule="nonzero" node-id="575" stroke="none" target-height="2.8399658" target-width="26.130005" target-x="627.21" target-y="650.71"></path><path d="M 683.47 653.55 L 660.21 653.55 C 659.57 653.48 659.00 653.15 658.62 652.63 L 657.90 651.63 C 657.54 651.12 657.66 650.71 658.17 650.71 L 681.00 650.71 C 681.67 650.79 682.28 651.12 682.71 651.63 L 683.59 652.63 C 684.05 653.14 684.00 653.55 683.47 653.55 Z" fill="#0c0426" fill-rule="nonzero" node-id="577" stroke="none" target-height="2.8399658" target-width="26.51001" target-x="657.54" target-y="650.71"></path><path d="M 714.25 653.55 L 691.00 653.55 C 690.32 653.47 689.70 653.14 689.24 652.63 L 688.34 651.63 C 687.88 651.12 687.92 650.71 688.43 650.71 L 711.28 650.71 C 711.99 650.81 712.66 651.13 713.17 651.63 L 714.23 652.63 C 714.75 653.14 714.76 653.55 714.25 653.55 Z" fill="#0c0426" fill-rule="nonzero" node-id="579" stroke="none" target-height="2.8399658" target-width="26.880005" target-x="687.88" target-y="650.71"></path><path d="M 745.00 653.55 L 721.77 653.55 C 721.05 653.45 720.37 653.13 719.84 652.63 L 718.75 651.63 C 718.20 651.12 718.17 650.71 718.67 650.71 L 741.53 650.71 C 742.29 650.81 743.00 651.13 743.58 651.63 L 744.83 652.63 C 745.45 653.14 745.54 653.55 745.00 653.55 Z" fill="#0c0426" fill-rule="nonzero" node-id="581" stroke="none" target-height="2.8399658" target-width="27.370056" target-x="718.1699" target-y="650.71"></path><g node-id="703"><g clip-path="url(#clip-path)" group-id="44" id="sillyvg_g_0" node-id="583"><path d="M 702.27 415.31 C 702.27 415.31 703.10 412.84 707.21 412.01 C 711.32 411.18 716.27 415.72 716.27 415.72 C 716.27 415.72 719.56 409.13 722.85 408.72 C 726.14 408.31 729.85 411.19 729.85 411.19" fill="none" group-id="44" node-id="585" stroke="#0c0426" stroke-linecap="butt" stroke-width="1" target-height="7.4100037" target-width="27.579895" target-x="702.27" target-y="408.31"></path><path d="M 691.57 430.94 C 691.57 430.94 692.40 428.48 696.51 427.65 C 700.62 426.82 705.57 431.36 705.57 431.36 C 705.57 431.36 708.86 424.77 712.15 424.36 C 715.44 423.95 719.15 426.83 719.15 426.83" fill="none" group-id="44" node-id="587" stroke="#0c0426" stroke-linecap="butt" stroke-width="1" target-height="7.409973" target-width="27.580017" target-x="691.57" target-y="423.95"></path><path d="M 730.67 431.00 C 730.67 431.00 731.30 429.12 734.43 428.50 C 737.56 427.88 741.32 431.32 741.32 431.32 C 741.32 431.32 743.83 426.32 746.32 425.99 C 748.81 425.66 751.64 427.87 751.64 427.87" fill="none" group-id="44" node-id="589" stroke="#0c0426" stroke-linecap="butt" stroke-width="1" target-height="5.660034" target-width="20.970032" target-x="730.67" target-y="425.66"></path><path d="M 776.40 447.61 C 776.88 446.67 777.82 446.04 778.87 445.97 C 780.87 445.56 783.39 447.82 783.39 447.82 C 783.39 447.82 785.03 444.53 786.68 444.33 C 787.95 444.35 789.17 444.78 790.17 445.56" fill="none" group-id="44" node-id="591" stroke="#0c0426" stroke-linecap="butt" stroke-width="1" target-height="3.4900208" target-width="13.7699585" target-x="776.4" target-y="444.33"></path><path d="M 539.57 383.12 C 536.14 367.71 518.37 356.22 502.88 358.42 C 498.99 358.88 495.32 360.50 492.37 363.08 C 488.37 366.72 489.37 370.85 487.37 375.36 C 486.87 376.66 485.77 377.63 484.42 377.96 C 480.57 378.62 477.47 374.78 473.57 374.75 C 470.65 374.75 466.93 376.34 465.30 378.86 C 463.79 381.20 464.84 385.29 462.12 386.86 C 459.07 388.60 455.36 385.29 452.06 386.49 C 447.97 387.97 449.83 390.95 448.34 392.81 C 446.85 394.67 443.87 393.93 439.78 393.56 C 435.69 393.19 432.33 398.03 432.33 398.03 L 561.53 398.03 C 561.53 398.03 562.65 396.16 557.81 388.72 C 552.97 381.28 546.27 386.49 543.29 386.49 C 540.31 386.49 539.57 383.13 539.57 383.12 Z" fill="none" group-id="44" node-id="593" stroke="#0c0426" stroke-linecap="butt" stroke-width="1" target-height="41.810028" target-width="130.32004" target-x="432.33" target-y="356.21997"></path><path d="M 691.31 373.92 C 689.60 366.26 680.77 360.54 673.06 361.64 C 671.12 361.86 669.30 362.67 667.84 363.96 C 665.84 365.76 666.34 367.82 665.36 370.06 C 665.11 370.71 664.56 371.19 663.89 371.35 C 661.98 371.68 660.44 369.77 658.50 369.76 C 656.89 369.76 655.37 370.49 654.38 371.76 C 653.63 372.92 654.16 374.96 652.80 375.76 C 651.28 376.63 649.44 374.98 647.80 375.58 C 645.80 376.32 646.69 377.80 645.95 378.73 C 645.21 379.66 643.73 379.28 641.69 379.10 C 639.65 378.92 637.99 381.32 637.99 381.32 L 702.23 381.32 C 702.23 381.32 702.79 380.39 700.38 376.69 C 697.97 372.99 694.64 375.58 693.16 375.58 C 691.68 375.58 691.31 373.92 691.31 373.92 Z" fill="none" group-id="44" node-id="595" stroke="#0c0426" stroke-linecap="butt" stroke-width="1" target-height="20.779968" target-width="64.79999" target-x="637.99" target-y="360.54"></path><path d="M 628.41 455.61 C 625.80 443.87 612.27 435.12 600.47 436.79 C 597.51 437.14 594.72 438.38 592.47 440.34 C 589.47 443.11 590.17 446.26 588.68 449.69 C 588.31 450.69 587.47 451.44 586.43 451.69 C 583.50 452.19 581.14 449.27 578.17 449.25 C 575.70 449.26 573.37 450.42 571.87 452.38 C 570.71 454.16 571.52 457.28 569.44 458.46 C 567.12 459.79 564.29 457.27 561.78 458.18 C 558.66 459.31 560.08 461.58 558.95 463.00 C 557.82 464.42 555.55 463.85 552.43 463.57 C 549.31 463.29 546.75 466.97 546.75 466.97 L 645.15 466.97 C 645.15 466.97 646.00 465.55 642.32 459.88 C 638.64 454.21 633.53 458.18 631.26 458.18 C 628.99 458.18 628.41 455.61 628.41 455.61 Z" fill="none" group-id="44" node-id="597" stroke="#0c0426" stroke-linecap="butt" stroke-width="1" target-height="31.850006" target-width="99.25" target-x="546.75" target-y="435.12"></path><path d="M 601.24 569.08 L 552.87 514.85 L 542.27 523.33 L 489.24 443.48 L 443.07 453.77 L 429.27 427.98 L 415.85 427.27 L 390.43 377.13 L 352.39 411.83 L 334.06 405.28 L 267.26 473.39" fill="none" group-id="44" node-id="599" stroke="#0c0426" stroke-linecap="butt" stroke-width="1" target-height="191.94998" target-width="333.97998" target-x="267.26" target-y="377.13004"></path><path d="M 610.31 579.25 L 605.24 573.57" fill="none" group-id="44" node-id="601" stroke="#0c0426" stroke-linecap="butt" stroke-width="1" target-height="5.6799927" target-width="5.0700073" target-x="605.24" target-y="573.57"></path><path d="M 418.29 460.40 L 414.29 461.48" fill="none" group-id="44" node-id="603" stroke="#0c0426" stroke-linecap="butt" stroke-width="1" target-height="1.0800171" target-width="3.9999695" target-x="414.29" target-y="460.4"></path><path d="M 442.98 453.71 L 422.79 459.18" fill="none" group-id="44" node-id="605" stroke="#0c0426" stroke-linecap="butt" stroke-width="1" target-height="5.470001" target-width="20.190002" target-x="422.79" target-y="453.71"></path><path d="M 366.80 430.50 L 378.11 413.81 L 377.34 408.08 L 390.32 381.74" fill="none" group-id="44" node-id="607" stroke="#0c0426" stroke-linecap="butt" stroke-width="1" target-height="48.76001" target-width="23.52002" target-x="366.8" target-y="381.74"></path><path d="M 362.07 437.47 L 364.91 433.29" fill="none" group-id="44" node-id="609" stroke="#0c0426" stroke-linecap="butt" stroke-width="1" target-height="4.1799927" target-width="2.8399963" target-x="362.07" target-y="433.29"></path><path d="M 344.53 447.35 L 326.19 472.21" fill="none" group-id="44" node-id="611" stroke="#0c0426" stroke-linecap="butt" stroke-width="1" target-height="24.859985" target-width="18.339996" target-x="326.19" target-y="447.35"></path><path d="M 334.97 408.08 L 339.55 418.39 L 349.86 426.79 L 348.71 441.67 L 346.22 445.06" fill="none" group-id="44" node-id="613" stroke="#0c0426" stroke-linecap="butt" stroke-width="1" target-height="36.98004" target-width="14.890015" target-x="334.97" target-y="408.08"></path><path d="M 429.27 427.98 L 419.71 437.09 L 416.28 431.37" fill="none" group-id="44" node-id="615" stroke="#0c0426" stroke-linecap="butt" stroke-width="1" target-height="9.109955" target-width="12.98999" target-x="416.28" target-y="427.98"></path><path d="M 815.10 530.01 L 740.87 477.65 L 718.34 509.46 L 690.50 500.19 L 647.43 560.50 L 619.59 554.53 L 605.67 566.46" fill="none" group-id="44" node-id="617" stroke="#0c0426" stroke-linecap="butt" stroke-width="1" target-height="88.81003" target-width="209.43" target-x="605.67" target-y="477.65"></path><path d="M 740.87 477.65 L 732.05 516.45 L 721.64 511.89" fill="none" group-id="44" node-id="619" stroke="#0c0426" stroke-linecap="butt" stroke-width="1" target-height="38.80002" target-width="19.22998" target-x="721.64" target-y="477.65"></path><path d="M 690.74 502.46 L 668.95 565.88 L 653.99 563.28" fill="none" group-id="44" node-id="621" stroke="#0c0426" stroke-linecap="butt" stroke-width="1" target-height="63.420013" target-width="36.75" target-x="653.99" target-y="502.46"></path><path d="M 442.11 551.61 L 393.00 551.61 L 393.00 528.20 L 439.82 417.46 L 467.92 417.46 L 467.92 528.20 L 480.00 528.20 L 480.00 551.61 L 467.87 551.61 L 467.87 581.35 L 442.11 581.35 Z M 442.11 528.20 L 442.11 464.29 L 441.64 464.29 L 416.36 528.20 Z" fill="#0c0426" fill-rule="nonzero" group-id="44" node-id="623" stroke="none" target-height="163.88998" target-width="87" target-x="393" target-y="417.46"></path><path d="M 492.81 542.48 L 492.81 456.33 C 492.81 430.10 506.62 415.12 531.91 415.12 C 557.20 415.12 571.00 430.10 571.00 456.33 L 571.00 542.48 C 571.00 568.70 557.19 583.69 531.91 583.69 C 506.63 583.69 492.81 568.70 492.81 542.48 Z M 545.25 544.12 L 545.25 454.69 C 545.25 442.98 540.10 438.53 531.91 438.53 C 523.72 438.53 518.56 442.98 518.56 454.69 L 518.56 544.12 C 518.56 555.83 523.71 560.27 531.91 560.27 C 540.11 560.27 545.25 555.83 545.25 544.12 Z" fill="#0c0426" fill-rule="nonzero" group-id="44" node-id="625" stroke="none" target-height="168.56998" target-width="78.19" target-x="492.81" target-y="415.12003"></path><path d="M 633.40 551.61 L 584.24 551.61 L 584.24 528.20 L 631.06 417.46 L 659.16 417.46 L 659.16 528.20 L 671.33 528.20 L 671.33 551.61 L 659.16 551.61 L 659.16 581.35 L 633.40 581.35 Z M 633.40 528.20 L 633.40 464.29 L 632.94 464.29 L 607.65 528.20 Z" fill="#0c0426" fill-rule="nonzero" group-id="44" node-id="627" stroke="none" target-height="163.88998" target-width="87.09003" target-x="584.24" target-y="417.46"></path><path d="M 744.37 534.23 C 704.25 560.53 625.03 578.42 533.85 578.42 C 439.85 578.42 358.59 559.42 319.74 531.78 L 319.74 637.53 L 744.37 637.53 Z" fill="#ffffff" fill-rule="nonzero" group-id="44" node-id="629" stroke="none" target-height="105.75" target-width="424.63" target-x="319.74" target-y="531.78"></path><path d="M 735.65 539.47 C 693.43 562.88 618.83 578.42 533.85 578.42 C 439.85 578.42 358.59 559.42 319.74 531.78" fill="none" group-id="44" node-id="631" stroke="#0c0426" stroke-linecap="butt" stroke-width="1" target-height="46.639954" target-width="415.91003" target-x="319.74" target-y="531.78"></path><path d="M 744.55 534.11 C 742.75 535.30 740.86 536.47 738.89 537.63" fill="none" group-id="44" node-id="633" stroke="#0c0426" stroke-linecap="butt" stroke-width="1" target-height="3.5200195" target-width="5.660034" target-x="738.88995" target-y="534.11"></path></g></g><path d="M 164.04 760.47 L 890.85 760.47" fill="none" node-id="636" stroke="#0c0426" stroke-linecap="butt" stroke-width="1" target-height="0" target-width="726.80994" target-x="164.04" target-y="760.47"></path><path d="M 906.40 760.47 L 984.47 760.47" fill="none" node-id="638" stroke="#0c0426" stroke-linecap="butt" stroke-width="1" target-height="0" target-width="78.07001" target-x="906.39996" target-y="760.47"></path><path d="M 39.53 760.47 L 151.00 760.47" fill="none" node-id="640" stroke="#0c0426" stroke-linecap="butt" stroke-width="1" target-height="0" target-width="111.47" target-x="39.53" target-y="760.47"></path><path d="M 872.63 369.48 L 872.63 368.00 L 878.75 365.36 L 878.75 367.00 L 874.53 368.78 L 878.75 370.56 L 878.75 372.16 Z" fill="#0c0426" fill-rule="nonzero" node-id="642" stroke="none" target-height="6.8000183" target-width="6.119995" target-x="872.63" target-y="365.36002"></path><path d="M 885.53 361.74 L 887.43 361.74 L 881.91 375.74 L 880.00 375.74 Z" fill="#0c0426" fill-rule="nonzero" node-id="644" stroke="none" target-height="14.0000305" target-width="7.4299927" target-x="880" target-y="361.74"></path><path d="M 888.69 370.52 L 892.91 368.74 L 888.69 367.00 L 888.69 365.40 L 894.81 368.04 L 894.81 369.52 L 888.69 372.16 Z" fill="#0c0426" fill-rule="nonzero" node-id="646" stroke="none" target-height="6.7600403" target-width="6.120056" target-x="888.69" target-y="365.4"></path><path d="M 801.67 497.31 L 801.67 495.83 L 807.79 493.19 L 807.79 494.79 L 803.57 496.57 L 807.79 498.35 L 807.79 500.00 Z" fill="#0c0426" fill-rule="nonzero" node-id="648" stroke="none" target-height="6.809967" target-width="6.119995" target-x="801.67004" target-y="493.19003"></path><path d="M 814.57 489.57 L 816.47 489.57 L 810.95 503.57 L 809.05 503.57 Z" fill="#0c0426" fill-rule="nonzero" node-id="650" stroke="none" target-height="14" target-width="7.419983" target-x="809.0499" target-y="489.57"></path><path d="M 817.73 498.35 L 821.95 496.57 L 817.73 494.79 L 817.73 493.19 L 823.85 495.83 L 823.85 497.31 L 817.73 500.00 Z" fill="#0c0426" fill-rule="nonzero" node-id="652" stroke="none" target-height="6.809967" target-width="6.119995" target-x="817.7299" target-y="493.19003"></path><path d="M 659.00 293.83 L 659.00 292.35 L 665.12 289.71 L 665.12 291.31 L 660.90 293.09 L 665.12 294.87 L 665.12 296.47 Z" fill="#0c0426" fill-rule="nonzero" node-id="654" stroke="none" target-height="6.76001" target-width="6.119995" target-x="659" target-y="289.71"></path><path d="M 671.91 286.09 L 673.81 286.09 L 668.29 300.09 L 666.39 300.09 Z" fill="#0c0426" fill-rule="nonzero" node-id="656" stroke="none" target-height="14" target-width="7.419983" target-x="666.39" target-y="286.09"></path><path d="M 675.07 294.87 L 679.29 293.09 L 675.07 291.31 L 675.07 289.71 L 681.19 292.35 L 681.19 293.83 L 675.07 296.47 Z" fill="#0c0426" fill-rule="nonzero" node-id="658" stroke="none" target-height="6.76001" target-width="6.119995" target-x="675.07" target-y="289.71"></path></svg>